<?xml version="1.0" standalone="no"?>
<svg xmlns="http://www.w3.org/2000/svg" xmlns:xlink="http://www.w3.org/1999/xlink" width="848pt" height="343pt" viewBox="0.00 0.00 847.72 343.00">
<g id="graph0" class="graph" transform="translate(4,339) scale(1)" data-name="G">

<polygon fill="#2e3e56" stroke="transparent" points="-4,4 -4,-339 843.72,-339 843.72,4 -4,4" style=""/>
<g id="clust1" class="cluster" data-name="clusterSUPERDEFIDistributionHelper">

<path fill="#445773" stroke="#445773" d="M20,-93C20,-93 819.72,-93 819.72,-93 825.72,-93 831.72,-99 831.72,-105 831.72,-105 831.72,-178 831.72,-178 831.72,-184 825.72,-190 819.72,-190 819.72,-190 20,-190 20,-190 14,-190 8,-184 8,-178 8,-178 8,-105 8,-105 8,-99 14,-93 20,-93" style=""/>
<text text-anchor="middle" x="419.86" y="-173.4" font-family="Times,serif" font-size="14.00" fill="#f0f0f0" style="">SUPERDEFIDistributionHelper</text>
</g>
<g id="clust2" class="cluster" data-name="clusterISUPERDEFIDistribution">

<path fill="#3b4b63" stroke="#e8726d" stroke-dasharray="5,2" d="M384.4,-8C384.4,-8 522.8,-8 522.8,-8 528.8,-8 534.8,-14 534.8,-20 534.8,-20 534.8,-73 534.8,-73 534.8,-79 528.8,-85 522.8,-85 522.8,-85 384.4,-85 384.4,-85 378.4,-85 372.4,-79 372.4,-73 372.4,-73 372.4,-20 372.4,-20 372.4,-14 378.4,-8 384.4,-8" style=""/>
<text text-anchor="middle" x="453.6" y="-68.4" font-family="Times,serif" font-size="14.00" fill="#f0f0f0" style="">ISUPERDEFIDistribution</text>
</g>
<g id="clust3" class="cluster" data-name="cluster_01">

<polygon fill="#2e3e56" stroke="black" points="88.68,-198 88.68,-327 488.1,-327 488.1,-198 88.68,-198" style=""/>
<text text-anchor="middle" x="288.39" y="-310.4" font-family="Times,serif" font-size="14.00" style="">Legend</text>
</g>
<!-- SUPERDEFIDistributionHelper.getAllTokensForAccount -->
<g id="node1" class="node" pointer-events="visible" data-name="SUPERDEFIDistributionHelper.getAllTokensForAccount">

<ellipse fill="#ff9797" stroke="#ff9797" stroke-width="3" cx="453.1" cy="-119" rx="109.97" ry="18" style=""/>
<text text-anchor="middle" x="453.1" y="-114.8" font-family="Times,serif" font-size="14.00" style="">getAllTokensForAccount</text>
</g>
<!-- SUPERDEFIDistributionHelper.ISUPERDEFIDistribution -->
<g id="node3" class="node" pointer-events="visible" data-name="SUPERDEFIDistributionHelper.ISUPERDEFIDistribution">

<ellipse fill="#edad56" stroke="#edad56" stroke-width="3" cx="711.27" cy="-129" rx="112.39" ry="18" style=""/>
<text text-anchor="middle" x="711.27" y="-124.8" font-family="Times,serif" font-size="14.00" style="">ISUPERDEFIDistribution</text>
</g>
<!-- SUPERDEFIDistributionHelper.getAllTokensForAccount&#45;&gt;SUPERDEFIDistributionHelper.ISUPERDEFIDistribution -->
<g id="edge1" class="edge" data-name="SUPERDEFIDistributionHelper.getAllTokensForAccount-&gt;SUPERDEFIDistributionHelper.ISUPERDEFIDistribution">

<path fill="none" stroke="#1bc6a6" stroke-width="2" d="M562,-116.54C577.11,-117.01 592.6,-117.63 607.61,-118.36" style=""/>
<polygon fill="#1bc6a6" stroke="#1bc6a6" stroke-width="2" points="607.75,-121.87 617.91,-118.88 608.1,-114.88 607.75,-121.87" style=""/>
</g>
<!-- SUPERDEFIDistributionHelper.getAllTokensForAccount&#45;&gt;SUPERDEFIDistributionHelper.ISUPERDEFIDistribution -->
<g id="edge2" class="edge" data-name="SUPERDEFIDistributionHelper.getAllTokensForAccount-&gt;SUPERDEFIDistributionHelper.ISUPERDEFIDistribution">

<path fill="none" stroke="#1bc6a6" stroke-width="2" d="M544.41,-129.01C558.93,-129.79 574.15,-130.47 589.24,-131.02" style=""/>
<polygon fill="#1bc6a6" stroke="#1bc6a6" stroke-width="2" points="589.55,-134.53 599.66,-131.38 589.79,-127.53 589.55,-134.53" style=""/>
</g>
<!-- SUPERDEFIDistributionHelper.getAllLockedPositionsForAccount -->
<g id="node2" class="node" pointer-events="visible" data-name="SUPERDEFIDistributionHelper.getAllLockedPositionsForAccount">

<ellipse fill="#ff9797" stroke="#ff9797" stroke-width="3" cx="161.68" cy="-129" rx="145.86" ry="18" style=""/>
<text text-anchor="middle" x="161.68" y="-124.8" font-family="Times,serif" font-size="14.00" style="">getAllLockedPositionsForAccount</text>
</g>
<!-- SUPERDEFIDistributionHelper.getAllLockedPositionsForAccount&#45;&gt;SUPERDEFIDistributionHelper.getAllTokensForAccount -->
<g id="edge3" class="edge" data-name="SUPERDEFIDistributionHelper.getAllLockedPositionsForAccount-&gt;SUPERDEFIDistributionHelper.getAllTokensForAccount">

<path fill="none" stroke="#1bc6a6" stroke-width="2" d="M302.3,-124.18C313.26,-123.8 324.25,-123.42 335.03,-123.04" style=""/>
<polygon fill="#1bc6a6" stroke="#1bc6a6" stroke-width="2" points="335.42,-126.53 345.29,-122.69 335.18,-119.54 335.42,-126.53" style=""/>
</g>
<!-- SUPERDEFIDistributionHelper.getAllLockedPositionsForAccount&#45;&gt;SUPERDEFIDistributionHelper.ISUPERDEFIDistribution -->
<g id="edge4" class="edge" data-name="SUPERDEFIDistributionHelper.getAllLockedPositionsForAccount-&gt;SUPERDEFIDistributionHelper.ISUPERDEFIDistribution">

<path fill="none" stroke="#1bc6a6" stroke-width="2" d="M301.19,-134.41C315.42,-135.44 329.67,-136.36 343.36,-137 440.8,-141.57 465.45,-142.6 562.83,-137 572.57,-136.44 582.66,-135.67 592.78,-134.8" style=""/>
<polygon fill="#1bc6a6" stroke="#1bc6a6" stroke-width="2" points="593.24,-138.28 602.89,-133.9 592.62,-131.3 593.24,-138.28" style=""/>
</g>
<!-- SUPERDEFIDistributionHelper.getAllLockedPositionsForAccount&#45;&gt;SUPERDEFIDistributionHelper.ISUPERDEFIDistribution -->
<g id="edge6" class="edge" data-name="SUPERDEFIDistributionHelper.getAllLockedPositionsForAccount-&gt;SUPERDEFIDistributionHelper.ISUPERDEFIDistribution">

<path fill="none" stroke="#1bc6a6" stroke-width="2" d="M229.93,-144.92C263.89,-149.41 305.75,-153.23 343.36,-155 440.8,-159.57 465.45,-160.6 562.83,-155 590.31,-153.42 620.53,-150.2 646.41,-146.33" style=""/>
<polygon fill="#1bc6a6" stroke="#1bc6a6" stroke-width="2" points="647.14,-149.76 656.48,-144.75 646.06,-142.84 647.14,-149.76" style=""/>
</g>
<!-- ISUPERDEFIDistribution.Position -->
<g id="node4" class="node" pointer-events="visible" data-name="ISUPERDEFIDistribution.Position">

<ellipse fill="#edad56" stroke="#edad56" stroke-width="3" cx="453.1" cy="-34" rx="42.9" ry="18" style=""/>
<text text-anchor="middle" x="453.1" y="-29.8" font-family="Times,serif" font-size="14.00" style="">Position</text>
</g>
<!-- SUPERDEFIDistributionHelper.getAllLockedPositionsForAccount&#45;&gt;ISUPERDEFIDistribution.Position -->
<g id="edge5" class="edge" data-name="SUPERDEFIDistributionHelper.getAllLockedPositionsForAccount-&gt;ISUPERDEFIDistribution.Position">

<path fill="none" stroke="white" stroke-width="2" d="M214.09,-112.13C269.64,-93.89 357.15,-65.16 409.16,-48.09" style=""/>
<polygon fill="white" stroke="white" stroke-width="2" points="410.34,-51.39 418.75,-44.94 408.16,-44.74 410.34,-51.39" style=""/>
</g>
<!-- key -->
<g id="node5" class="node" pointer-events="visible" data-name="key">

<polygon fill="#edad56" stroke="transparent" stroke-width="3" points="226.68,-294 96.68,-294 96.68,-206 226.68,-206 226.68,-294" style=""/>
<text text-anchor="start" x="146.32" y="-275.4" font-family="Times,serif" font-size="14.00" style="">Internal Call</text>
<text text-anchor="start" x="142.43" y="-255.4" font-family="Times,serif" font-size="14.00" style="">External Call</text>
<text text-anchor="start" x="119.89" y="-235.4" font-family="Times,serif" font-size="14.00" style="">Defined Contract</text>
<text text-anchor="start" x="106.28" y="-215.4" font-family="Times,serif" font-size="14.00" style="">Undefined Contract</text>
</g>
<!-- key2 -->
<g id="node6" class="node" pointer-events="visible" data-name="key2">

<polygon fill="#edad56" stroke="transparent" stroke-width="3" points="480.1,-294 426.1,-294 426.1,-206 480.1,-206 480.1,-294" style=""/>
<text text-anchor="start" x="443.1" y="-275.4" font-family="Times,serif" font-size="14.00" style="">   </text>
<text text-anchor="start" x="443.1" y="-255.4" font-family="Times,serif" font-size="14.00" style="">   </text>
<polygon fill="#445773" stroke="transparent" points="441.1,-230 441.1,-250 466.1,-250 466.1,-230 441.1,-230" style=""/>
<text text-anchor="start" x="443.1" y="-235.4" font-family="Times,serif" font-size="14.00" style="">   </text>
<polygon fill="none" stroke="#e8726d" points="443.1,-212 443.1,-228 464.1,-228 464.1,-212 443.1,-212" style=""/>
</g>
<!-- key&#45;&gt;key2 -->
<g id="edge7" class="edge" data-name="key-&gt;key2">

<path fill="none" stroke="#1bc6a6" stroke-width="2" d="M219.68,-280C314.2,-280 340.32,-280 430.03,-280" style=""/>
<polygon fill="#1bc6a6" stroke="#1bc6a6" stroke-width="2" points="430.1,-283.5 440.1,-280 430.1,-276.5 430.1,-283.5" style=""/>
</g>
<!-- key&#45;&gt;key2 -->
<g id="edge8" class="edge" data-name="key-&gt;key2">

<path fill="none" stroke="white" stroke-width="2" d="M219.68,-260C314.2,-260 340.32,-260 430.03,-260" style=""/>
<polygon fill="white" stroke="white" stroke-width="2" points="430.1,-263.5 440.1,-260 430.1,-256.5 430.1,-263.5" style=""/>
</g>
</g>
</svg>